<?xml version="1.0" standalone="no"?>
<!DOCTYPE svg PUBLIC "-//W3C//DTD SVG 20010904//EN"
 "http://www.w3.org/TR/2001/REC-SVG-20010904/DTD/svg10.dtd">
<svg version="1.0" xmlns="http://www.w3.org/2000/svg"
 width="439.000000pt" height="439.000000pt" viewBox="0 0 439.000000 439.000000"
 preserveAspectRatio="xMidYMid meet">
<metadata>
Created by potrace 1.11, written by Peter Selinger 2001-2013
</metadata>
<g transform="translate(0.000000,439.000000) scale(0.100000,-0.100000)"
fill="#000000" stroke="none">
<path d="M2064 4321 c-129 -63 -234 -143 -369 -282 -211 -217 -377 -471 -519
-791 -240 -546 -309 -1065 -210 -1580 64 -333 213 -711 390 -994 176 -280 410
-522 619 -639 36 -20 69 -35 75 -33 5 1 -26 30 -70 62 -239 176 -407 444 -467
743 -21 108 -24 379 -4 498 26 158 85 309 173 437 85 126 205 236 532 489 141
108 270 231 340 322 154 203 229 444 228 742 0 393 -168 729 -490 987 -122 97
-114 95 -228 39z"/>
<path d="M2731 3984 c136 -144 227 -307 276 -491 22 -84 26 -120 27 -253 0
-168 -14 -263 -61 -395 -63 -174 -183 -313 -428 -495 -174 -129 -317 -269
-375 -368 -57 -96 -95 -214 -116 -354 -51 -349 65 -684 327 -937 100 -97 108
-101 172 -69 85 42 224 147 317 239 281 279 482 682 567 1139 25 137 25 548 0
710 -97 608 -375 1103 -752 1336 -19 11 -1 -12 46 -62z"/>
</g>
</svg>
