<?xml version="1.0" standalone="no"?>
<!DOCTYPE svg PUBLIC "-//W3C//DTD SVG 20010904//EN"
 "http://www.w3.org/TR/2001/REC-SVG-20010904/DTD/svg10.dtd">
<svg version="1.0" xmlns="http://www.w3.org/2000/svg"
 width="200.000000pt" height="200.000000pt" viewBox="0 0 200.000000 200.000000"
 preserveAspectRatio="xMidYMid meet">
<metadata>
Created by potrace 1.11, written by Peter Selinger 2001-2013
</metadata>
<g transform="translate(0.000000,200.000000) scale(0.100000,-0.100000)"
fill="#000000" stroke="none">
<path d="M886 1963 c-1 -2 -18 -5 -37 -7 -71 -9 -106 -17 -169 -38 -63 -20
-207 -87 -233 -107 -6 -6 -39 -32 -72 -58 -171 -135 -288 -315 -341 -523 -33
-132 -37 -311 -9 -435 27 -115 94 -277 142 -339 10 -13 25 -34 33 -47 20 -31
178 -189 188 -189 5 0 21 -11 36 -24 41 -35 237 -129 281 -135 6 -1 26 -6 46
-11 85 -23 250 -31 364 -17 137 17 347 108 460 200 69 56 155 149 200 217 41
62 102 178 110 210 3 8 13 48 24 88 19 68 34 179 35 247 0 135 -40 309 -100
427 -13 26 -24 51 -24 56 0 5 29 14 65 21 75 15 117 42 98 62 -8 8 -49 13
-123 13 l-111 1 -25 32 c-142 181 -409 330 -629 350 -65 5 -205 9 -209 6z"/>
</g>
</svg>
