<?xml version="1.0" encoding="utf-8"?>
<!-- Generator: Adobe Illustrator 27.9.0, SVG Export Plug-In . SVG Version: 6.00 Build 0)  -->
<svg version="1.1" id="Layer_1" xmlns="http://www.w3.org/2000/svg" xmlns:xlink="http://www.w3.org/1999/xlink" x="0px" y="0px"
	 viewBox="0 0 32 32" style="enable-background:new 0 0 32 32;" xml:space="preserve">
<style type="text/css">
	.st0{fill:#28939D;}
	.st1{fill:#FFFFFF;}
</style>
<rect class="st0" width="32" height="32"/>
<g>
	<circle class="st1" cx="2.5" cy="2.6" r="0.9"/>
	<circle class="st1" cx="2.5" cy="6.4" r="0.9"/>
	<circle class="st1" cx="2.5" cy="10.2" r="0.9"/>
	<circle class="st1" cx="2.5" cy="14" r="0.9"/>
	<circle class="st1" cx="2.5" cy="17.8" r="0.9"/>
	<circle class="st1" cx="2.5" cy="21.6" r="0.9"/>
	<circle class="st1" cx="2.5" cy="25.3" r="0.9"/>
	<circle class="st1" cx="2.5" cy="29.1" r="0.9"/>
	<circle class="st1" cx="6.3" cy="2.6" r="0.9"/>
	<circle class="st1" cx="6.3" cy="6.4" r="0.9"/>
	<circle class="st1" cx="6.3" cy="10.2" r="0.9"/>
	<circle class="st1" cx="6.3" cy="14" r="0.9"/>
	<circle class="st1" cx="6.3" cy="17.8" r="0.9"/>
	<circle class="st1" cx="6.3" cy="21.6" r="0.9"/>
	<circle class="st1" cx="6.3" cy="25.3" r="0.9"/>
	<circle class="st1" cx="10.1" cy="2.6" r="0.9"/>
	<circle class="st1" cx="10.1" cy="6.4" r="0.9"/>
	<circle class="st1" cx="10.1" cy="10.2" r="0.9"/>
	<circle class="st1" cx="10.1" cy="14" r="0.9"/>
	<circle class="st1" cx="10.1" cy="17.8" r="0.9"/>
	<circle class="st1" cx="10.1" cy="21.6" r="0.9"/>
	<circle class="st1" cx="13.9" cy="2.6" r="0.9"/>
	<circle class="st1" cx="13.9" cy="6.4" r="0.9"/>
	<circle class="st1" cx="13.9" cy="10.2" r="0.9"/>
	<circle class="st1" cx="13.9" cy="14" r="0.9"/>
	<circle class="st1" cx="13.9" cy="17.8" r="0.9"/>
	<circle class="st1" cx="17.6" cy="2.6" r="0.9"/>
	<circle class="st1" cx="17.6" cy="6.4" r="0.9"/>
	<circle class="st1" cx="17.6" cy="10.2" r="0.9"/>
	<circle class="st1" cx="17.6" cy="14" r="0.9"/>
	<circle class="st1" cx="21.4" cy="2.6" r="0.9"/>
	<circle class="st1" cx="21.4" cy="6.4" r="0.9"/>
	<circle class="st1" cx="21.4" cy="10.2" r="0.9"/>
	<circle class="st1" cx="25.2" cy="2.6" r="0.9"/>
	<circle class="st1" cx="25.2" cy="6.4" r="0.9"/>
	<circle class="st1" cx="29" cy="2.6" r="0.9"/>
</g>
</svg>
